<?xml version="1.0" standalone="no"?>
<!DOCTYPE svg PUBLIC "-//W3C//DTD SVG 20010904//EN"
 "http://www.w3.org/TR/2001/REC-SVG-20010904/DTD/svg10.dtd">
<svg version="1.0" xmlns="http://www.w3.org/2000/svg"
 width="412.000000pt" height="412.000000pt" viewBox="0 0 412.000000 412.000000"
 preserveAspectRatio="xMidYMid meet">
<metadata>
Created by potrace 1.14, written by Peter Selinger 2001-2017
</metadata>
<g transform="translate(0.000000,412.000000) scale(0.100000,-0.100000)"
fill="#000000" stroke="none">
<path d="M1722 4052 c-29 -2 -40 -7 -36 -15 5 -8 3 -8 -7 1 -15 14 -73 17 -64
3 3 -6 -6 -6 -25 -1 -17 5 -32 5 -35 -1 -4 -5 -21 -9 -40 -9 -19 0 -37 -5 -40
-10 -4 -7 -13 -7 -26 0 -12 7 -19 7 -19 1 0 -5 -9 -8 -20 -6 -11 2 -22 1 -24
-3 -2 -4 -19 -9 -38 -10 -18 -2 -35 -7 -36 -12 -2 -6 -8 -8 -13 -4 -5 3 -15 2
-21 -3 -7 -4 -20 -8 -28 -10 -30 -4 -155 -48 -158 -55 -2 -5 -8 -8 -13 -8 -11
0 -92 -34 -122 -51 -10 -5 -57 -31 -105 -56 -48 -25 -99 -54 -113 -64 -14 -10
-31 -19 -38 -21 -13 -3 -70 -50 -132 -109 -21 -20 -40 -35 -42 -33 -2 2 -14
-14 -28 -36 -13 -22 -28 -40 -34 -40 -5 0 -25 -25 -44 -55 -18 -30 -37 -55
-42 -55 -5 0 -9 -5 -9 -12 0 -6 -6 -19 -14 -27 -7 -9 -24 -36 -37 -61 -13 -25
-27 -47 -30 -50 -17 -13 -91 -209 -84 -220 3 -5 1 -10 -3 -12 -19 -7 -98 -337
-88 -364 3 -7 2 -15 -1 -18 -10 -10 -3 -126 9 -155 6 -14 12 -37 14 -51 2 -14
8 -26 14 -28 5 -2 8 -8 5 -12 -6 -10 38 -115 53 -124 6 -3 8 -15 5 -25 -6 -25
11 -82 44 -147 l27 -52 -26 -51 c-15 -28 -23 -53 -18 -56 5 -3 5 -17 -1 -32
-5 -15 -8 -32 -5 -39 2 -7 2 -15 -1 -18 -10 -10 -2 -138 12 -191 14 -52 49
-129 69 -151 28 -33 36 -44 36 -52 0 -16 145 -148 178 -163 18 -8 32 -17 32
-21 0 -5 6 -8 14 -8 7 0 19 -7 26 -15 7 -8 16 -12 21 -9 5 3 9 1 9 -4 0 -9 37
-25 53 -23 4 1 7 -4 7 -11 0 -15 104 -226 144 -293 33 -55 97 -142 144 -193
16 -18 47 -54 68 -80 80 -95 136 -151 189 -188 30 -20 55 -41 55 -46 0 -4 5
-8 10 -8 6 0 32 -15 58 -33 26 -18 61 -39 77 -47 17 -8 42 -23 57 -33 16 -10
28 -16 28 -13 0 4 17 -4 38 -17 32 -20 151 -60 258 -87 18 -4 37 -11 44 -15 6
-4 37 -9 68 -11 31 -3 71 -7 87 -10 59 -10 100 -11 120 -4 11 4 54 11 95 15
41 3 91 10 110 15 50 13 302 117 309 128 5 7 42 31 166 105 45 27 153 114 218
176 38 36 106 101 150 144 45 42 86 77 90 77 5 0 7 6 4 14 -3 7 2 19 11 27 10
8 41 51 70 95 45 68 61 85 115 114 55 30 202 164 232 211 6 9 26 40 46 70 35
53 87 171 96 218 2 14 7 29 10 35 4 5 7 48 7 95 1 107 -22 184 -73 238 -20 21
-20 21 -1 46 11 14 20 30 20 35 0 6 3 12 8 14 13 6 89 134 102 172 6 20 16 36
22 36 6 0 9 3 5 6 -3 4 1 23 9 43 25 58 27 70 38 187 2 23 6 47 10 53 4 6 3
11 -2 11 -5 0 -8 36 -8 80 1 47 -3 80 -9 80 -5 0 -3 5 5 10 8 5 10 10 4 10 -6
0 -9 13 -6 30 2 17 0 30 -6 30 -5 0 -9 11 -8 24 0 13 4 22 9 19 4 -2 7 1 7 6
0 6 -4 11 -10 11 -5 0 -10 10 -10 23 0 13 -6 29 -13 36 -10 11 -9 12 3 6 12
-7 13 -6 4 6 -6 8 -17 35 -25 61 -7 26 -17 45 -21 42 -4 -3 -5 2 -2 10 3 9 1
16 -6 16 -6 0 -9 4 -5 10 5 8 -1 25 -27 70 -4 8 -11 22 -14 30 -3 8 -10 22
-15 30 -5 8 -14 27 -20 42 -6 16 -15 25 -20 22 -5 -3 -6 2 -3 10 3 9 1 16 -6
16 -6 0 -9 4 -5 9 3 5 1 12 -5 16 -6 4 -8 11 -5 16 4 5 1 9 -4 9 -6 0 -10 3
-9 8 4 12 -24 72 -33 72 -5 0 -9 7 -9 16 0 10 -5 14 -15 10 -13 -5 -14 -2 -4
15 7 13 7 19 1 15 -6 -3 -13 2 -16 12 -4 10 -25 38 -48 62 -24 24 -36 40 -28
36 8 -5 2 3 -13 17 -16 14 -34 24 -41 21 -7 -3 -19 3 -26 13 -12 15 -12 16 0
6 17 -15 30 -17 30 -4 0 5 -8 12 -18 15 -9 3 -22 16 -27 28 -6 13 -20 28 -32
34 -13 6 -20 14 -16 17 3 4 1 7 -6 7 -7 0 -10 4 -7 8 3 5 -6 15 -19 22 -13 7
-22 17 -19 22 5 7 -10 12 -28 9 -5 0 -8 7 -8 16 0 14 -2 15 -9 5 -6 -10 -10
-9 -14 7 -3 12 -13 24 -24 28 -10 4 -26 16 -36 28 -17 20 -17 20 -7 -7 14 -40
3 -34 -14 7 -14 33 -47 48 -59 28 -2 -5 -2 -2 0 5 4 19 -22 42 -51 44 -14 1
-26 6 -26 10 0 4 -9 5 -20 3 -11 -2 -19 -1 -19 3 3 20 -2 25 -11 12 -6 -10
-10 -11 -10 -2 0 6 -7 12 -15 12 -8 0 -15 5 -15 10 0 6 -5 10 -11 10 -5 0 -8
-4 -5 -8 3 -5 -1 -9 -9 -9 -8 0 -12 4 -10 8 7 11 -61 40 -79 33 -9 -3 -16 -2
-16 4 0 13 -47 21 -58 10 -6 -6 -13 -5 -17 3 -6 8 -4 10 5 4 8 -5 11 -4 7 1
-3 6 -24 11 -47 12 -27 2 -39 -1 -35 -8 10 -17 -7 -11 -20 7 -24 32 -86 26
-80 -8 2 -11 0 -17 -6 -13 -6 3 -8 9 -5 12 7 7 -13 32 -26 32 -5 0 -7 -4 -4
-8 3 -5 -1 -9 -9 -9 -8 0 -12 4 -9 9 6 10 7 9 -78 11 -36 1 -66 0 -66 -3 0 -3
0 -12 -1 -20 -1 -12 -4 -11 -12 3 -6 9 -15 15 -20 11 -6 -4 -5 -12 3 -22 7
-10 0 -6 -16 8 -30 28 -30 27 -53 5 -13 -13 -18 -14 -24 -3 -6 9 -9 8 -9 -7 0
-17 -2 -17 -10 -5 -8 13 -13 13 -40 -2 -17 -10 -28 -13 -25 -8 3 6 -1 10 -9
10 -19 0 -48 -29 -41 -41 4 -5 -2 -6 -11 -2 -12 4 -15 3 -10 -5 4 -7 2 -12 -3
-12 -6 0 -11 5 -11 11 0 5 -4 7 -10 4 -5 -3 -10 -1 -10 4 0 6 -9 11 -20 11
-11 0 -20 -6 -20 -12 0 -10 -3 -10 -9 0 -7 11 -13 9 -31 -10 -13 -12 -19 -16
-15 -8 8 13 6 13 -8 1 -9 -7 -14 -17 -11 -22 3 -5 -4 -9 -16 -9 -12 0 -19 4
-16 9 7 11 -28 43 -38 34 -4 -4 -4 0 0 10 3 10 1 17 -5 17 -6 0 -35 12 -65 26
-31 14 -66 27 -80 28 -13 0 -22 4 -19 9 7 12 -12 8 -26 -5 -9 -8 -11 -8 -8 -2
9 15 -8 20 -61 16z m802 -30 c3 -5 -1 -9 -9 -9 -8 0 -12 4 -9 9 3 4 7 8 9 8 2
0 6 -4 9 -8z m213 -20 c-10 -10 -14 -22 -10 -25 3 -4 1 -7 -5 -7 -7 0 -12 3
-12 7 0 8 31 43 38 43 3 0 -2 -8 -11 -18z m-1077 2 c0 -8 -19 -13 -24 -6 -3 5
1 9 9 9 8 0 15 -2 15 -3z m665 -13 c3 -5 2 -12 -3 -15 -5 -3 -9 1 -9 9 0 17 3
19 12 6z m325 -13 c0 -4 -4 -8 -9 -8 -6 0 -12 4 -15 8 -3 5 1 9 9 9 8 0 15 -4
15 -9z m40 -12 c0 -2 -7 -7 -16 -10 -8 -3 -12 -2 -9 4 6 10 25 14 25 6z m75
-5 c-9 -8 -36 -10 -30 -2 2 4 11 8 20 8 8 0 13 -3 10 -6z m200 -1 c3 -5 1 -10
-4 -10 -6 0 -11 5 -11 10 0 6 2 10 4 10 3 0 8 -4 11 -10z m-659 -36 c1 -9 0
-13 -4 -10 -3 4 -7 14 -8 22 -1 9 0 13 4 10 3 -4 7 -14 8 -22z m39 16 c3 -5 1
-10 -4 -10 -6 0 -11 5 -11 10 0 6 2 10 4 10 3 0 8 -4 11 -10z m125 0 c0 -5 -2
-10 -4 -10 -3 0 -8 5 -11 10 -3 6 -1 10 4 10 6 0 11 -4 11 -10z m335 -8 c-3
-3 -11 0 -18 7 -9 10 -8 11 6 5 10 -3 15 -9 12 -12z m42 -5 c1 -11 1 -18 0
-16 -2 2 -8 11 -15 20 -9 12 -9 16 1 16 7 0 14 -9 14 -20z m-81 -11 c0 -14 -3
-23 -7 -20 -6 3 -6 22 0 42 3 10 7 -2 7 -22z m-521 -4 c-3 -3 -11 0 -18 7 -9
10 -8 11 6 5 10 -3 15 -9 12 -12z m178 3 c4 -8 3 -16 -1 -19 -4 -3 -9 4 -9 15
-2 23 3 25 10 4z m463 -1 c-4 -10 1 -26 11 -38 l17 -21 -22 21 c-15 13 -20 26
-16 37 3 9 8 17 11 17 3 0 2 -7 -1 -16z m79 -15 c-3 -12 -7 -24 -10 -27 -3 -3
-3 5 -1 19 6 30 5 29 10 29 3 0 3 -10 1 -21z m45 17 c0 -2 -8 -10 -17 -17 -16
-13 -17 -12 -4 4 13 16 21 21 21 13z m-540 -16 c0 -5 -2 -10 -4 -10 -3 0 -8 5
-11 10 -3 6 -1 10 4 10 6 0 11 -4 11 -10z m560 -4 c0 -2 -8 -10 -17 -17 -16
-13 -17 -12 -4 4 13 16 21 21 21 13z m-1170 -10 c0 -2 -8 -10 -17 -17 -16 -13
-17 -12 -4 4 13 16 21 21 21 13z m821 -19 c-10 -9 -11 -8 -5 6 3 10 9 15 12
12 3 -3 0 -11 -7 -18z m44 13 c3 -5 1 -10 -4 -10 -6 0 -11 5 -11 10 0 6 2 10
4 10 3 0 8 -4 11 -10z m-480 -9 c3 -5 2 -12 -3 -15 -5 -3 -9 1 -9 9 0 17 3 19
12 6z m955 5 c0 -2 -7 -7 -16 -10 -8 -3 -12 -2 -9 4 6 10 25 14 25 6z m-835
-16 c3 -5 1 -10 -4 -10 -6 0 -11 5 -11 10 0 6 2 10 4 10 3 0 8 -4 11 -10z
m365 -4 c0 -2 -8 -10 -17 -17 -16 -13 -17 -12 -4 4 13 16 21 21 21 13z m220
-17 c0 -5 -4 -9 -8 -9 -5 0 -9 7 -9 15 0 8 4 12 9 9 4 -3 8 -9 8 -15z m40 17
c0 -2 -8 -10 -17 -17 -16 -13 -17 -12 -4 4 13 16 21 21 21 13z m-185 -34 c-3
-3 1 -12 8 -21 11 -14 10 -14 -6 -2 -9 8 -15 16 -12 19 3 3 -1 12 -8 21 -11
14 -10 14 6 2 9 -8 15 -16 12 -19z m379 12 c3 -8 2 -12 -4 -9 -6 3 -10 10 -10
16 0 14 7 11 14 -7z m26 6 c0 -5 -2 -10 -4 -10 -3 0 -8 5 -11 10 -3 6 -1 10 4
10 6 0 11 -4 11 -10z m-826 -19 c3 -5 -2 -15 -12 -22 -15 -12 -16 -12 -5 2 7
9 10 19 6 22 -3 4 -4 7 0 7 3 0 8 -4 11 -9z m102 -3 c3 -4 -1 -5 -10 -4 -8 1
-18 5 -22 8 -3 4 1 5 10 4 8 -1 18 -5 22 -8z m184 8 c0 -3 -4 -8 -10 -11 -5
-3 -10 -1 -10 4 0 6 5 11 10 11 6 0 10 -2 10 -4z m176 -22 c1 -9 0 -13 -4 -10
-3 4 -7 14 -8 22 -1 9 0 13 4 10 3 -4 7 -14 8 -22z m39 8 c-3 -3 -11 0 -18 7
-9 10 -8 11 6 5 10 -3 15 -9 12 -12z m362 3 c0 -8 -4 -12 -9 -9 -5 3 -6 10 -3
15 9 13 12 11 12 -6z m-997 -9 c0 -2 -7 -7 -16 -10 -8 -3 -12 -2 -9 4 6 10 25
14 25 6z m80 0 c0 -2 -7 -7 -16 -10 -8 -3 -12 -2 -9 4 6 10 25 14 25 6z m797
-2 c-8 -9 -47 -13 -51 -6 -2 4 9 8 25 8 17 1 28 0 26 -2z m-582 -24 c3 -5 1
-10 -4 -10 -6 0 -11 5 -11 10 0 6 2 10 4 10 3 0 8 -4 11 -10z m225 5 c0 -7
-30 -13 -34 -7 -3 4 4 9 15 9 10 1 19 0 19 -2z m319 -29 c-3 -3 -11 5 -18 17
-13 21 -12 21 5 5 10 -10 16 -20 13 -22z m79 15 c-7 -9 -13 -18 -15 -20 -1 -2
-1 5 0 16 0 11 7 20 14 20 10 0 10 -4 1 -16z m52 14 c0 -1 -12 -12 -27 -26
-20 -17 -23 -18 -10 -3 9 11 15 23 12 26 -3 2 2 5 10 5 8 0 15 -1 15 -2z m30
-3 c0 -5 -10 -17 -22 -28 -23 -19 -23 -19 -5 2 9 11 14 24 10 27 -3 4 -1 7 5
7 7 0 12 -4 12 -8z m-366 -21 c-8 -8 -34 -10 -38 -2 -3 4 6 7 19 7 14 0 22 -2
19 -5z m432 -3 c3 -4 -1 -5 -10 -4 -8 1 -18 5 -22 8 -3 4 1 5 10 4 8 -1 18 -5
22 -8z m-686 -18 c0 -5 -5 -10 -11 -10 -5 0 -7 5 -4 10 3 6 8 10 11 10 2 0 4
-4 4 -10z m504 2 c3 -5 -1 -9 -9 -9 -8 0 -15 4 -15 9 0 4 4 8 9 8 6 0 12 -4
15 -8z m-67 -17 c0 -8 -4 -15 -9 -15 -10 0 -11 14 -1 23 9 10 10 9 10 -8z
m-677 1 c0 -2 -7 -7 -16 -10 -8 -3 -12 -2 -9 4 6 10 25 14 25 6z m995 -5 c3
-5 2 -12 -3 -15 -5 -3 -9 1 -9 9 0 17 3 19 12 6z m-370 -21 c3 -6 -1 -7 -9 -4
-18 7 -21 14 -7 14 6 0 13 -4 16 -10z m195 6 c0 -2 -7 -7 -16 -10 -8 -3 -12
-2 -9 4 6 10 25 14 25 6z m37 -19 c1 -11 1 -18 0 -16 -2 2 -8 11 -15 20 -9 12
-9 16 1 16 7 0 14 -9 14 -20z m43 -8 c0 -5 -5 -9 -12 -9 -6 0 -8 3 -5 7 4 3 1
13 -6 22 -11 14 -10 14 6 2 9 -7 17 -17 17 -22z m75 -16 c-1 -15 2 -33 6 -39
5 -6 4 -11 -4 -11 -8 0 -13 15 -13 43 0 23 3 41 7 39 3 -3 5 -17 4 -32z m-678
12 c0 -8 -4 -12 -9 -9 -5 3 -6 10 -3 15 9 13 12 11 12 -6z m403 11 c0 -2 -7
-7 -16 -10 -8 -3 -12 -2 -9 4 6 10 25 14 25 6z m361 -23 c13 -16 12 -17 -3 -4
-17 13 -22 21 -14 21 2 0 10 -8 17 -17z m-824 -8 c0 -8 -4 -12 -9 -9 -5 3 -6
10 -3 15 9 13 12 11 12 -6z m600 -10 c0 -8 -4 -15 -9 -15 -10 0 -11 14 -1 23
9 10 10 9 10 -8z m201 -10 c-3 -3 -9 2 -12 12 -6 14 -5 15 5 6 7 -7 10 -15 7
-18z m-131 4 c-9 -6 -14 -15 -11 -21 4 -7 2 -8 -5 -4 -14 9 3 36 23 36 6 0 3
-5 -7 -11z m208 -11 c5 4 5 1 1 -6 -6 -10 -11 -10 -22 -1 -8 6 -14 14 -14 16
0 3 6 0 13 -6 8 -6 18 -7 22 -3z m-835 -2 c0 -3 -4 -8 -10 -11 -5 -3 -10 -1
-10 4 0 6 5 11 10 11 6 0 10 -2 10 -4z m50 -2 c0 -8 -19 -13 -24 -6 -3 5 1 9
9 9 8 0 15 -2 15 -3z m23 -19 c-7 -21 -12 -19 -10 4 0 11 5 18 9 15 4 -3 5
-11 1 -19z m47 15 c0 -5 -5 -10 -11 -10 -5 0 -7 5 -4 10 3 6 8 10 11 10 2 0 4
-4 4 -10z m544 2 c2 -4 -4 -8 -14 -8 -10 0 -16 4 -14 8 3 4 9 8 14 8 5 0 11
-4 14 -8z m93 -15 c0 -7 -9 -14 -20 -14 -19 -2 -19 -2 -1 12 11 8 19 15 20 15
0 0 1 -6 1 -13z m62 -14 c2 -1 -5 -1 -16 0 -11 0 -20 7 -20 14 0 10 4 10 16 1
9 -7 18 -13 20 -15z m-439 3 c-7 -7 -13 -7 -20 0 -6 6 -3 10 10 10 13 0 16 -4
10 -10z m214 5 c-8 -8 -34 -10 -38 -2 -3 4 6 7 19 7 14 0 22 -2 19 -5z m76
-14 c0 -2 -10 -12 -22 -23 l-23 -19 19 23 c18 21 26 27 26 19z m-77 -22 c-3
-9 -8 -14 -10 -11 -3 3 -2 9 2 15 9 16 15 13 8 -4z m160 0 c-3 -9 -8 -14 -10
-11 -3 3 -2 9 2 15 9 16 15 13 8 -4z m43 -11 c1 -9 0 -13 -4 -10 -3 4 -7 14
-8 22 -1 9 0 13 4 10 3 -4 7 -14 8 -22z m44 22 c0 -2 -8 -10 -17 -17 -16 -13
-17 -12 -4 4 13 16 21 21 21 13z m-815 -15 c-9 -8 -36 -10 -30 -2 2 4 11 8 20
8 8 0 13 -3 10 -6z m355 -1 c0 -5 -2 -10 -4 -10 -3 0 -8 5 -11 10 -3 6 -1 10
4 10 6 0 11 -4 11 -10z m34 -6 c3 -8 2 -12 -4 -9 -6 3 -10 10 -10 16 0 14 7
11 14 -7z m146 12 c0 -3 -4 -8 -10 -11 -5 -3 -10 -1 -10 4 0 6 5 11 10 11 6 0
10 -2 10 -4z m176 -41 c1 -8 -5 -20 -14 -27 -15 -11 -15 -11 -6 2 6 8 10 23 8
33 -1 11 0 16 4 13 3 -4 7 -13 8 -21z m128 17 c2 -4 -4 -8 -14 -8 -10 0 -16 4
-14 8 3 4 9 8 14 8 5 0 11 -4 14 -8z m-311 -17 c-3 -9 -8 -14 -10 -11 -3 3 -2
9 2 15 9 16 15 13 8 -4z m-42 -18 c-10 -9 -11 -8 -5 6 3 10 9 15 12 12 3 -3 0
-11 -7 -18z m-451 -1 c0 -3 -4 -8 -10 -11 -5 -3 -10 -1 -10 4 0 6 5 11 10 11
6 0 10 -2 10 -4z m54 -4 c3 -5 -1 -9 -9 -9 -8 0 -12 4 -9 9 3 4 7 8 9 8 2 0 6
-4 9 -8z m81 -2 c3 -5 1 -10 -4 -10 -6 0 -11 5 -11 10 0 6 2 10 4 10 3 0 8 -4
11 -10z m536 -33 c-10 -9 -11 -8 -5 6 3 10 9 15 12 12 3 -3 0 -11 -7 -18z
m234 13 c-5 -8 -72 -7 -79 1 -3 2 15 5 39 5 24 0 42 -3 40 -6z m-725 -14 c0
-3 -4 -8 -10 -11 -5 -3 -10 -1 -10 4 0 6 5 11 10 11 6 0 10 -2 10 -4z m617
-13 c0 -9 -4 -10 -14 -2 -7 6 -13 12 -13 14 0 1 6 2 13 2 8 0 14 -6 14 -14z
m-1203 -11 c3 -5 -1 -9 -9 -9 -8 0 -12 4 -9 9 3 4 7 8 9 8 2 0 6 -4 9 -8z
m917 -9 c13 -16 12 -17 -3 -4 -17 13 -22 21 -14 21 2 0 10 -8 17 -17z m244 8
c3 -5 2 -12 -3 -15 -5 -3 -9 1 -9 9 0 17 3 19 12 6z m136 -8 c13 -16 12 -17
-3 -4 -17 13 -22 21 -14 21 2 0 10 -8 17 -17z m49 13 c0 -2 -7 -7 -16 -10 -8
-3 -12 -2 -9 4 6 10 25 14 25 6z m-304 -32 c1 -9 0 -13 -4 -10 -3 4 -7 14 -8
22 -1 9 0 13 4 10 3 -4 7 -14 8 -22z m-516 12 c0 -3 -4 -8 -10 -11 -5 -3 -10
-1 -10 4 0 6 5 11 10 11 6 0 10 -2 10 -4z m180 0 c0 -3 -4 -8 -10 -11 -5 -3
-10 -1 -10 4 0 6 5 11 10 11 6 0 10 -2 10 -4z m-94 -28 c3 -4 -1 -5 -10 -4 -8
1 -18 5 -22 8 -3 4 1 5 10 4 8 -1 18 -5 22 -8z m465 -45 c13 -16 12 -17 -3 -4
-17 13 -22 21 -14 21 2 0 10 -8 17 -17z m-376 -12 c-9 -8 -36 -10 -30 -2 2 4
11 8 20 8 8 0 13 -3 10 -6z m125 5 c0 -3 -4 -8 -10 -11 -5 -3 -10 -1 -10 4 0
6 5 11 10 11 6 0 10 -2 10 -4z m496 -22 c1 -9 0 -13 -4 -10 -3 4 -7 14 -8 22
-1 9 0 13 4 10 3 -4 7 -14 8 -22z m64 -3 c0 -6 -4 -12 -8 -15 -5 -3 -9 1 -9 9
0 8 4 15 9 15 4 0 8 -4 8 -9z m35 -1 c3 -5 1 -10 -4 -10 -6 0 -11 5 -11 10 0
6 2 10 4 10 3 0 8 -4 11 -10z m-639 -22 c3 -4 -1 -5 -10 -4 -8 1 -18 5 -22 8
-3 4 1 5 10 4 8 -1 18 -5 22 -8z m164 2 c0 -5 -5 -10 -11 -10 -5 0 -7 5 -4 10
3 6 8 10 11 10 2 0 4 -4 4 -10z m40 6 c0 -3 -4 -8 -10 -11 -5 -3 -10 -1 -10 4
0 6 5 11 10 11 6 0 10 -2 10 -4z m40 0 c0 -3 -4 -8 -10 -11 -5 -3 -10 -1 -10
4 0 6 5 11 10 11 6 0 10 -2 10 -4z m-706 -32 c3 -8 2 -12 -4 -9 -6 3 -10 10
-10 16 0 14 7 11 14 -7z m896 10 c0 -8 -19 -13 -24 -6 -3 5 1 9 9 9 8 0 15 -2
15 -3z m61 -11 c13 -16 12 -17 -3 -4 -17 13 -22 21 -14 21 2 0 10 -8 17 -17z
m-534 -25 c2 -17 0 -19 -7 -8 -5 8 -6 18 -4 22 8 12 10 10 11 -14z m99 10 c3
-4 -1 -5 -10 -4 -8 1 -18 5 -22 8 -3 4 1 5 10 4 8 -1 18 -5 22 -8z m179 2 c3
-5 1 -10 -4 -10 -6 0 -11 5 -11 10 0 6 2 10 4 10 3 0 8 -4 11 -10z m322 -15
c0 -8 -4 -12 -9 -9 -5 3 -6 10 -3 15 9 13 12 11 12 -6z m-452 -5 c3 -6 -1 -7
-9 -4 -18 7 -21 14 -7 14 6 0 13 -4 16 -10z m51 -25 c-1 -8 -5 -17 -8 -21 -5
-4 -4 16 1 34 3 9 9 -1 7 -13z m128 7 c3 -5 -1 -9 -9 -9 -8 0 -12 4 -9 9 3 4
7 8 9 8 2 0 6 -4 9 -8z m36 -2 c0 -5 -2 -10 -4 -10 -3 0 -8 5 -11 10 -3 6 -1
10 4 10 6 0 11 -4 11 -10z m181 -17 c13 -16 12 -17 -3 -4 -17 13 -22 21 -14
21 2 0 10 -8 17 -17z m80 0 c13 -16 12 -17 -3 -4 -17 13 -22 21 -14 21 2 0 10
-8 17 -17z m-508 -8 c4 -8 3 -16 -1 -19 -4 -3 -9 4 -9 15 -2 23 3 25 10 4z
m362 -15 c3 -5 1 -10 -4 -10 -6 0 -11 5 -11 10 0 6 2 10 4 10 3 0 8 -4 11 -10z
m143 -25 c-3 -3 -9 2 -12 12 -6 14 -5 15 5 6 7 -7 10 -15 7 -18z m-101 -4 c0
-11 -5 -18 -9 -15 -4 3 -5 11 -1 19 7 21 12 19 10 -4z m-120 -6 c0 -8 -4 -12
-9 -9 -5 3 -6 10 -3 15 9 13 12 11 12 -6z m-33 -3 c3 -5 -1 -9 -9 -9 -8 0 -12
4 -9 9 3 4 7 8 9 8 2 0 6 -4 9 -8z m116 -2 c0 -5 -5 -10 -11 -10 -5 0 -7 5 -4
10 3 6 8 10 11 10 2 0 4 -4 4 -10z m-160 -20 c0 -5 -5 -10 -11 -10 -5 0 -7 5
-4 10 3 6 8 10 11 10 2 0 4 -4 4 -10z m75 -19 c3 -5 2 -12 -3 -15 -5 -3 -9 1
-9 9 0 17 3 19 12 6z m-224 -28 c13 -17 13 -17 -6 -3 -11 8 -22 16 -24 17 -2
2 0 3 6 3 6 0 17 -8 24 -17z m346 -8 c0 -8 -4 -12 -9 -9 -5 3 -6 10 -3 15 9
13 12 11 12 -6z m-82 -4 c-9 -8 -36 -10 -30 -2 2 4 11 8 20 8 8 0 13 -3 10 -6z
m121 -6 c-1 -8 -5 -17 -8 -21 -5 -4 -4 16 1 34 3 9 9 -1 7 -13z m84 11 c0 -3
-4 -8 -10 -11 -5 -3 -10 -1 -10 4 0 6 5 11 10 11 6 0 10 -2 10 -4z m44 -4 c3
-5 -1 -9 -9 -9 -8 0 -12 4 -9 9 3 4 7 8 9 8 2 0 6 -4 9 -8z m31 -2 c3 -5 1
-10 -4 -10 -6 0 -11 5 -11 10 0 6 2 10 4 10 3 0 8 -4 11 -10z m85 -34 c0 -3
-4 -8 -10 -11 -5 -3 -10 -1 -10 4 0 6 5 11 10 11 6 0 10 -2 10 -4z m-305 -45
c3 -5 2 -12 -3 -15 -5 -3 -9 1 -9 9 0 17 3 19 12 6z m222 -13 c2 -17 0 -19 -7
-8 -5 8 -6 18 -4 22 8 12 10 10 11 -14z m117 -86 c3 -5 -1 -9 -9 -9 -8 0 -12
4 -9 9 3 4 7 8 9 8 2 0 6 -4 9 -8z m-570 -200 c3 -5 -1 -9 -9 -9 -8 0 -15 4
-15 9 0 4 4 8 9 8 6 0 12 -4 15 -8z"/>
</g>
</svg>
